<svg xmlns="http://www.w3.org/2000/svg" width="16" height="16" data-name="Layer 1" viewBox="0 0 24 24"><path d="M19.5 0h-15A4.505 4.505 0 0 0 0 4.5v15C0 21.981 2.019 24 4.5 24h15c2.481 0 4.5-2.019 4.5-4.5v-15C24 2.019 21.981 0 19.5 0ZM23 19.5c0 1.93-1.57 3.5-3.5 3.5h-15C2.57 23 1 21.43 1 19.5v-15C1 2.57 2.57 1 4.5 1h15C21.43 1 23 2.57 23 4.5v15ZM14.732 5.732l-8.707 8.707A3.474 3.474 0 0 0 5 16.914V18.5a.5.5 0 0 0 .5.5h1.586c.921 0 1.823-.374 2.475-1.025l8.707-8.707a2.502 2.502 0 0 0 0-3.535c-.943-.945-2.592-.945-3.535 0ZM8.853 17.267a2.514 2.514 0 0 1-1.768.732H5.999v-1.086c0-.668.26-1.296.732-1.768l6.604-6.604 2.121 2.121-6.604 6.604ZM17.56 8.56l-1.396 1.396-2.121-2.121 1.396-1.396c.566-.566 1.555-.566 2.121 0a1.501 1.501 0 0 1 0 2.121Z"/></svg>