<svg xmlns="http://www.w3.org/2000/svg" width="24" height="24" version="1.0" viewBox="0 0 24 24" fill="#333334">
    <path d="M11 3.3c0 2.7-.6 3.6-2.6 4.6-1.7.7-2.4 1.7-2 2.6.4 1.2-.3 1.5-3 1.5-2.9 0-3.5.3-3 1.6.3.9.6 3.6.6 6V24h22v-4.4c0-2.4.3-5.1.6-6 .5-1.3-.1-1.6-3-1.6-2.6 0-3.4-.4-3-1.4.3-.7-.6-2.1-2-3C12.7 5.8 12.2 4 14.5 4c.8 0 1.5-.9 1.5-2 0-1.5-.7-2-2.5-2-2.2 0-2.5.4-2.5 3.3zM15 2c0 .5-.4 1-1 1-.5 0-1-.5-1-1 0-.6.5-1 1-1 .6 0 1 .4 1 1zm-.6 6.6c1.3.5 1.6 2.1 1.5 7.8-.1 4.8-.3 6.1-.8 4.1-.5-2.4-1.2-3-3.1-3-1.9 0-2.6.6-3.1 3-.5 2-.7.6-.8-4.2-.1-7 .3-8 3.6-8.2.6-.1 1.8.2 2.7.5zm-8.1 6.1c-.7.2-2.1.2-3 0-1-.3-.5-.5 1.2-.5s2.4.2 1.8.5zm15 0c-.7.2-2.1.2-3 0-1-.3-.4-.5 1.2-.5 1.7 0 2.4.2 1.8.5zm-14.5 5c-.2 2-.9 2.8-2.3 2.8s-2.1-.8-2.3-2.8c-.3-2.3 0-2.7 2.3-2.7s2.6.4 2.3 2.7zm15 0c-.2 2-.9 2.8-2.3 2.8s-2.1-.8-2.3-2.8c-.3-2.3 0-2.7 2.3-2.7s2.6.4 2.3 2.7zm-8.8.8c0 1.4-.4 2.5-1 2.5-.5 0-1-1.1-1-2.5s.5-2.5 1-2.5c.6 0 1 1.1 1 2.5z"/>
    <path d="M10.2 11.7c.2 1 1 1.8 1.8 1.8s1.6-.8 1.8-1.8c.2-1.2-.3-1.7-1.8-1.7s-2 .5-1.8 1.7zM4.1 19.6c0 1.1.3 1.4.6.6.3-.7.2-1.6-.1-1.9-.3-.4-.6.2-.5 1.3zM19.1 19.6c0 1.1.3 1.4.6.6.3-.7.2-1.6-.1-1.9-.3-.4-.6.2-.5 1.3z"/></svg>